<svg width="441" height="306" viewBox="0 0 441 306" fill="none" xmlns="http://www.w3.org/2000/svg">
<g clip-path="url(#clip0_1_2)">
<path d="M293.55 167.411L229.505 204.389C227.03 205.817 223.98 205.817 221.505 204.389L157.46 167.411C154.985 165.983 153.46 163.341 153.46 160.482V86.5277C153.46 83.6696 154.985 81.0285 157.46 79.5993L221.505 42.6218C223.98 41.1927 227.03 41.1928 229.505 42.6218L293.55 79.5993C296.025 81.0285 297.55 83.6696 297.55 86.5277V160.482C297.55 163.341 296.025 165.983 293.55 167.411Z" stroke="white" stroke-width="4" stroke-dasharray="800 800" class="myHexagon"/>
<path d="M147.46 73.5993L211.505 36.6218C213.98 35.1927 217.03 35.1927 219.505 36.6218L283.55 73.5993C286.025 75.0285 287.55 77.6696 287.55 80.5277V154.484C287.55 157.341 286.025 159.983 283.55 161.411L219.505 198.389C217.03 199.817 213.98 199.817 211.505 198.389L147.46 161.411C144.985 159.983 143.46 157.341 143.46 154.484V80.5277C143.46 77.6696 144.985 75.0285 147.46 73.5993Z" stroke="white" stroke-width="4" stroke-dasharray="800 800" class="myHexagon"/>
<path d="M193.594 84.5247C196.113 84.6742 198.257 85.0383 200.028 85.6156C201.832 86.1939 203.057 86.6001 203.704 86.8359C204.385 87.0711 204.947 87.1887 205.389 87.1887C205.866 87.1887 206.257 87.1245 206.563 86.9961C206.87 86.8677 207.142 86.7178 207.38 86.5467C207.619 86.3757 207.823 86.1939 207.993 86.0008C208.163 85.7871 208.334 85.5945 208.504 85.4235H213.201V100.478H209.525C208.776 99.986 207.925 98.9157 206.972 97.2681C206.018 95.5989 205.201 94.2722 204.521 93.2877C203.874 92.3031 203.057 91.3833 202.07 90.5271C199.891 88.6227 197.066 87.4989 193.594 87.1564V84.5247ZM183.23 130.877C181.221 130.298 179.808 129.892 178.991 129.656C178.174 129.4 177.323 129.271 176.438 129.271C175.587 129.271 174.634 129.86 173.579 131.037H168.83V115.18H172.354C173.103 115.672 173.766 116.346 174.344 117.202C174.957 118.058 175.587 118.989 176.234 119.995C176.915 120.979 177.647 121.996 178.429 123.044C179.213 124.093 180.166 125.066 181.288 125.965C183.808 127.955 187.007 129.079 190.888 129.336V131.968C187.824 131.797 185.272 131.433 183.23 130.877ZM195.126 129.304C198.802 129.025 201.644 128.084 203.653 126.479C205.423 125.045 206.308 123.408 206.308 121.567C206.308 119.706 205.781 118.219 204.725 117.106C203.67 115.972 202.274 114.976 200.538 114.12C198.837 113.243 196.879 112.451 194.667 111.745C192.454 111.039 190.19 110.343 187.876 109.659C185.595 108.952 183.348 108.225 181.136 107.476C178.957 106.705 177.017 105.828 175.315 104.844C171.469 102.618 169.546 99.911 169.546 96.7226C169.546 93.4911 171.298 90.7305 174.804 88.4404C178.548 86.0439 183.4 84.7168 189.357 84.46V87.1245C185.136 87.4671 182.293 88.8256 180.829 91.2015C180.353 91.9718 180.115 92.9343 180.115 94.0899C180.115 95.2455 180.659 96.3266 181.748 97.3323C182.837 98.3379 184.267 99.2367 186.037 100.029C187.808 100.821 189.816 101.548 192.062 102.211C194.343 102.875 196.658 103.549 199.007 104.233C201.39 104.919 203.704 105.657 205.951 106.449C208.232 107.241 210.257 108.16 212.027 109.209C215.975 111.585 217.95 114.452 217.95 117.812C217.95 121.45 215.856 124.617 211.669 127.313C207.278 130.181 201.764 131.743 195.126 132V129.304Z" fill="white" class="letter"/>
<path d="M253.653 122.906C253.653 116.281 249.592 112.969 241.471 112.969C240.176 112.969 239.028 113.036 238.028 113.17V110.46H241.868C253.402 110.46 260.877 112.735 264.29 117.285C265.497 118.869 266.1 120.664 266.1 122.671C266.1 124.656 265.614 126.418 264.643 127.957C263.702 129.496 262.274 130.834 260.362 131.972C256.242 134.425 250.504 135.652 243.148 135.652H238.028V133.143C243.383 133.143 247.282 132.418 249.724 130.968C252.343 129.362 253.653 126.675 253.653 122.906ZM234.364 150.038C234.364 151.577 234.438 152.625 234.585 153.183C234.761 153.718 235.1 154.13 235.6 154.42C236.101 154.688 236.704 154.9 237.41 155.056C238.116 155.19 238.881 155.323 239.705 155.458C240.529 155.569 241.323 155.759 242.089 156.026V158H217.15V156.026C217.65 155.759 218.209 155.569 218.827 155.458C219.474 155.346 220.093 155.212 220.681 155.056C222.093 154.721 222.888 154.097 223.065 153.183C223.241 152.246 223.33 151.175 223.33 149.971V118.456C223.33 115.98 222.947 114.508 222.182 114.04C221.564 113.661 220.696 113.371 219.577 113.17C218.489 112.947 217.68 112.701 217.15 112.434V110.46H234.364V150.038Z" fill="white" class="letter"/>
<mask id="mask0_1_2" style="mask-type:alpha" maskUnits="userSpaceOnUse" x="-3" y="223" width="447" height="87">
<path d="M0.230293 294.317C1.04911 292.095 2.20058 289.513 3.68468 286.569C5.21997 283.626 6.55055 281.237 7.67643 279.405L9.36524 276.739C10.0817 275.628 10.7982 275.073 11.5146 275.073C12.0776 275.073 12.359 275.378 12.359 275.989L12.1288 276.822C10.2864 281.876 9.36524 286.236 9.36524 289.901C9.36524 292.845 9.95377 295.261 11.1308 297.149C12.359 298.982 14.2526 299.898 16.8114 299.898C20.6496 299.898 23.7457 298.093 26.0998 294.483C28.454 290.818 29.631 286.875 29.631 282.654C29.631 279.044 28.4795 273.906 26.1766 267.242C23.9249 260.521 22.799 255.967 22.799 253.579C22.799 248.414 24.8204 244.276 28.8634 241.166C32.9575 238 37.4354 236.418 42.2971 236.418C43.1671 236.418 44.0115 236.473 44.8303 236.584C45.7003 236.695 46.6471 236.89 47.6706 237.167C48.6941 237.39 49.513 237.778 50.1271 238.334C50.7412 238.889 51.0482 239.583 51.0482 240.416C51.0482 241.527 50.3318 243.416 48.8988 246.081C47.4659 248.747 46.2633 250.774 45.2909 252.163C44.9327 252.441 44.6256 252.579 44.3697 252.579C44.0115 252.579 43.8324 252.246 43.8324 251.58C43.8324 250.025 43.9859 247.914 44.293 245.248C44.293 240.916 42.7577 238.75 39.6871 238.75C37.0771 238.75 34.851 239.722 33.0086 241.666C31.2175 243.61 30.3219 245.97 30.3219 248.747C30.3219 252.413 31.4989 257.522 33.853 264.076C36.2583 270.629 37.461 275.683 37.461 279.238C37.461 285.903 35.0301 291.401 30.1684 295.733C25.3578 300.009 19.9331 302.148 13.8943 302.148C12.8708 302.148 11.6426 302.037 10.2096 301.814C8.77671 301.592 7.26702 301.231 5.68056 300.731C4.09409 300.287 2.76351 299.621 1.68881 298.732C0.562938 297.788 0 296.733 0 295.566C0 295.122 0.0767642 294.706 0.230293 294.317Z" stroke="white" stroke-width="6" stroke-dasharray="800 800"/>
<path d="M62.9911 297.007C58.6947 301.19 55.7442 303.281 54.1395 303.281C53.4148 303.281 53.0525 302.841 53.0525 301.96C53.0525 300.859 53.4925 299.181 54.3724 296.924C55.3042 294.668 56.2359 292.686 57.1677 290.98L58.5653 288.421C58.7724 288.036 58.8759 287.788 58.8759 287.678C58.8759 287.568 58.8241 287.513 58.7206 287.513C58.5135 287.513 58.1253 287.815 57.5559 288.421C56.003 290.237 54.2171 292.191 52.1984 294.282C50.2313 296.319 48.6266 297.915 47.3843 299.071L45.5985 300.722C43.5797 302.373 42.0268 303.198 40.9397 303.198C39.8009 303.198 39.2315 302.263 39.2315 300.391C39.2315 299.456 39.4903 298.025 40.008 296.099C40.4738 294.172 40.8362 292.879 41.095 292.218C42.2856 289.136 43.7608 286.137 45.5208 283.22C47.3326 280.303 49.4549 277.523 51.8878 274.882C54.3207 272.185 57.1418 270.011 60.3512 268.36C63.6123 266.708 66.9769 265.883 70.4451 265.883C73.3439 265.883 74.7933 266.351 74.7933 267.286C74.7933 267.837 74.1462 268.112 72.8521 268.112C68.0899 268.112 63.6123 270.286 59.4194 274.634C55.2783 278.927 51.9137 283.88 49.3255 289.494C48.6008 291.035 48.2384 292.328 48.2384 293.374C48.2384 293.98 48.4196 294.282 48.7819 294.282C49.4031 294.282 50.2054 293.814 51.189 292.879C51.8101 292.273 52.6383 291.475 53.6736 290.485C54.7607 289.494 56.4948 287.595 58.8759 284.788C61.257 281.981 63.1464 279.367 64.544 276.945C64.7511 276.505 65.0617 275.982 65.4758 275.377C65.9417 274.771 66.7958 273.973 68.0381 272.983C69.2804 271.937 70.5228 271.414 71.7651 271.414C72.438 271.414 72.7745 271.607 72.7745 271.992C72.7745 272.102 72.6968 272.295 72.5416 272.57C72.3345 273.01 71.7392 274.111 70.7557 275.872C69.824 277.633 68.944 279.312 68.1157 280.908C67.2875 282.449 66.4075 284.155 65.4758 286.027C64.544 287.843 63.7935 289.411 63.2241 290.732C62.7064 292.053 62.4476 292.934 62.4476 293.374C62.4476 293.704 62.577 293.87 62.8358 293.87C63.6123 293.87 65.5017 292.273 68.504 289.081C70.7816 286.55 73.4474 283.44 76.5015 279.752C76.6568 279.587 76.7862 279.505 76.8897 279.505C76.9932 279.505 77.045 279.615 77.045 279.835C77.045 280.881 76.6568 281.899 75.8803 282.89C70.8075 288.889 66.5111 293.594 62.9911 297.007Z" stroke="white" stroke-width="6" stroke-dasharray="800 800"/>
<path d="M95.055 292.739C94.1254 295.463 92.6536 297.77 90.6395 299.661C88.6254 301.495 86.7404 302.746 84.9845 303.414C83.2803 304.081 81.731 304.414 80.3366 304.414C76.5667 304.414 74.6817 302.83 74.6817 299.661C74.6817 296.436 76.3343 293.517 79.6394 290.904C81.1887 289.681 82.8672 288.875 84.6747 288.486C84.9329 288.486 85.062 288.597 85.062 288.819C85.062 288.93 85.0104 289.042 84.9071 289.153C83.616 290.209 82.3765 291.849 81.1887 294.073C80.0526 296.297 79.4845 298.243 79.4845 299.911C79.4845 301.579 80.1301 302.413 81.4211 302.413C82.454 302.413 83.4611 301.968 84.4423 301.078C85.4752 300.133 86.2498 299.188 86.7662 298.243L87.5409 296.909C88.5738 295.129 89.4259 292.294 90.0972 288.402C90.8202 284.51 91.285 281.063 91.4916 278.061L91.724 273.558C91.724 273.113 91.6465 272.89 91.4916 272.89L91.1818 273.057L83.5127 282.731C82.9446 283.454 82.5573 283.815 82.3507 283.815C82.0925 283.815 81.9634 283.621 81.9634 283.232C81.9634 282.509 82.1441 281.953 82.5057 281.564L83.2028 280.646C89.0902 273.53 92.447 269.221 93.2733 267.72C94.048 266.441 95.1841 265.329 96.6818 264.384C98.1278 263.494 99.832 263.05 101.794 263.05C102.311 263.05 102.569 263.272 102.569 263.717C102.569 263.995 102.363 264.245 101.949 264.467C101.794 264.523 101.588 264.662 101.33 264.884C101.123 265.051 100.71 265.496 100.09 266.219C99.5222 266.941 99.0057 267.775 98.5409 268.721C98.0762 269.666 97.663 271 97.3015 272.724C96.94 274.392 96.7592 276.254 96.7592 278.311C96.7592 284.705 96.1912 289.514 95.055 292.739Z" stroke="white" stroke-width="6" stroke-dasharray="800 800"/>
<path d="M113.15 294.162C107.104 300.241 103.229 303.281 101.523 303.281C100.645 303.281 100.206 302.645 100.206 301.374C100.206 300.103 100.671 298.252 101.601 295.82C102.531 293.388 103.461 291.26 104.391 289.437L105.786 286.784C109.713 279.433 112.685 274.155 114.7 270.95C115.578 269.568 116.689 268.408 118.033 267.468C119.428 266.473 120.719 265.976 121.908 265.976C122.321 265.976 122.528 266.169 122.528 266.556C122.528 266.832 122.347 267.357 121.985 268.131C121.365 269.347 119.841 272.249 117.412 276.836C114.984 281.423 113.537 284.186 113.072 285.126C110.954 289.105 109.894 291.758 109.894 293.084C109.894 293.582 110.049 293.83 110.359 293.83C110.876 293.83 112.529 292.449 115.32 289.685C117.49 287.364 120.358 284.02 123.923 279.654C124.078 279.489 124.207 279.406 124.311 279.406C124.414 279.406 124.466 279.516 124.466 279.737C124.466 280.787 124.078 281.81 123.303 282.805C119.479 287.336 116.095 291.122 113.15 294.162ZM123.458 261.25C122.166 261.25 121.52 260.421 121.52 258.763C121.52 257.216 122.063 255.668 123.148 254.121C124.233 252.518 125.422 251.717 126.713 251.717C128.264 251.717 129.039 252.656 129.039 254.536C129.039 256.083 128.444 257.603 127.256 259.095C126.067 260.532 124.802 261.25 123.458 261.25Z" stroke="white" stroke-width="6" stroke-dasharray="800 800"/>
<path d="M177.809 273.316C177.449 274.038 175.291 278.732 171.333 287.398C168.712 293.176 166.065 297.537 163.392 300.481C160.771 303.481 158.766 304.981 157.379 304.981C156.762 304.981 156.453 304.675 156.453 304.064L156.685 303.064C157.25 301.398 158.998 297.481 161.927 291.315C164.908 285.149 167.684 279.677 170.254 274.899C172.669 270.344 175.034 265.955 177.347 261.733C179.66 257.455 181.381 254.317 182.512 252.317L184.208 249.317C184.311 249.15 184.44 248.928 184.594 248.65C184.748 248.373 185.082 247.873 185.596 247.15C186.161 246.428 186.727 245.817 187.292 245.317C187.858 244.762 188.526 244.262 189.297 243.817C190.068 243.373 190.813 243.151 191.532 243.151C192.201 243.151 192.535 243.345 192.535 243.734C192.535 244.234 192.226 244.956 191.61 245.901C187.755 253.011 183.643 261.094 179.274 270.149C179.223 270.26 179.197 270.372 179.197 270.483C179.197 270.649 179.3 270.733 179.505 270.733C182.743 270.733 185.724 270.066 188.449 268.733C191.224 267.399 193.46 265.677 195.156 263.566C196.904 261.4 198.24 259.094 199.165 256.65C200.142 254.206 200.63 251.789 200.63 249.4C200.63 246.012 199.448 243.456 197.083 241.734C194.719 240.012 191.944 239.151 188.757 239.151C186.341 239.151 183.977 239.54 181.664 240.317C179.403 241.095 177.398 242.428 175.65 244.317C173.954 246.206 173.106 248.456 173.106 251.067C173.106 252.622 173.492 254.122 174.263 255.567C174.52 256.122 174.648 256.511 174.648 256.733C174.648 257.067 174.443 257.233 174.031 257.233C173.929 257.233 173.723 257.178 173.415 257.067C173.26 257.011 173.055 256.9 172.798 256.733C172.541 256.567 172.078 256.233 171.41 255.733C170.742 255.233 170.151 254.706 169.637 254.15C169.123 253.595 168.66 252.872 168.249 251.984C167.838 251.039 167.632 250.095 167.632 249.15C167.632 245.706 169.586 242.817 173.492 240.484C177.449 238.151 181.921 236.984 186.907 236.984C189.322 236.984 191.61 237.206 193.768 237.651C195.978 238.095 198.111 238.818 200.167 239.817C202.275 240.762 203.945 242.151 205.179 243.984C206.412 245.817 207.029 247.984 207.029 250.484C207.029 254.206 206.129 257.567 204.331 260.566C202.583 263.511 200.27 265.872 197.392 267.649C194.565 269.372 191.532 270.705 188.294 271.649C185.056 272.538 181.793 272.982 178.503 272.982C178.452 272.927 178.375 272.899 178.272 272.899C178.066 272.899 177.912 273.038 177.809 273.316Z" stroke="white" stroke-width="6" stroke-dasharray="800 800"/>
<path d="M210.077 286.825C209.667 286.825 209.462 286.658 209.462 286.324C209.462 286.157 209.539 285.934 209.693 285.656C212.719 280.534 214.231 277.027 214.231 275.134C214.231 274.633 214.052 274.382 213.693 274.382C212.154 274.382 208.539 278.168 202.847 285.739C201.154 288.077 199.565 290.499 198.078 293.004C196.642 295.509 195.642 297.43 195.078 298.766L194.155 300.686C193.539 302.022 192.59 303.247 191.308 304.361C190.026 305.53 188.693 306.114 187.308 306.114C186.59 306.114 186.232 305.919 186.232 305.53C186.232 305.196 186.462 304.5 186.924 303.442C187.334 302.384 187.847 301.215 188.462 299.935C189.078 298.654 189.693 297.402 190.308 296.177C190.924 294.952 191.437 293.923 191.847 293.087L192.539 291.835L200.616 276.554C203.744 270.152 207.026 266.951 210.462 266.951C210.924 266.951 211.154 267.145 211.154 267.535C211.154 268.036 210.026 270.124 207.77 273.798C205.565 277.416 204.283 279.727 203.924 280.729C203.821 281.063 203.77 281.258 203.77 281.313C203.77 281.425 203.821 281.48 203.924 281.48C204.026 281.48 204.206 281.341 204.462 281.063C208.308 276.331 212.385 272.128 216.693 268.454C216.949 268.175 217.513 267.786 218.385 267.285C219.257 266.728 220.026 266.449 220.693 266.449C221.667 266.449 222.154 267.368 222.154 269.205C222.154 271.209 221.539 273.603 220.308 276.387C219.077 279.17 217.411 281.619 215.308 283.735L215.001 284.069C214.795 284.236 214.565 284.431 214.308 284.653C214.103 284.821 213.821 285.043 213.462 285.322C213.103 285.6 212.744 285.85 212.385 286.073C212.026 286.24 211.642 286.407 211.231 286.574C210.821 286.741 210.436 286.825 210.077 286.825Z" stroke="white" stroke-width="6" stroke-dasharray="800 800"/>
<path d="M242.711 275.941C243.325 274.548 243.632 273.322 243.632 272.263C243.632 271.372 243.376 270.926 242.864 270.926C242.557 270.926 242.199 271.038 241.79 271.26C241.431 271.428 241.15 271.623 240.945 271.845L240.562 272.18C238.975 273.684 236.98 276.443 234.575 280.454C232.222 284.411 231.045 286.946 231.045 288.06C231.045 288.283 231.096 288.395 231.198 288.395C231.505 288.395 232.171 288.116 233.194 287.559C234.268 287.002 235.778 285.692 237.722 283.631C239.717 281.569 241.38 279.006 242.711 275.941ZM239.257 295.081C241.969 292.351 245.857 287.838 250.923 281.541C251.076 281.374 251.204 281.29 251.306 281.29C251.409 281.29 251.46 281.402 251.46 281.625C251.46 282.683 251.076 283.714 250.309 284.717C246.522 289.286 243.171 293.103 240.255 296.168C238.106 298.508 235.547 300.765 232.58 302.938C229.612 305.055 227.156 306.114 225.212 306.114C222.858 306.114 221.682 304.331 221.682 300.765C221.682 294.858 223.677 288.673 227.668 282.21C231.71 275.746 236.366 271.372 241.636 269.087C243.836 268.084 245.832 267.583 247.622 267.583C249.618 267.583 250.616 268.446 250.616 270.174C250.616 273.406 248.518 277.111 244.322 281.29C240.127 285.469 235.419 288.646 230.201 290.819C229.996 290.874 229.817 291.069 229.663 291.404C228.896 293.688 228.512 295.722 228.512 297.505C228.512 299.511 229.203 300.514 230.584 300.514C232.784 300.514 235.675 298.703 239.257 295.081Z" stroke="white" stroke-width="6" stroke-dasharray="800 800"/>
<path d="M276.27 275.941C276.884 274.548 277.191 273.322 277.191 272.263C277.191 271.372 276.935 270.926 276.424 270.926C276.117 270.926 275.758 271.038 275.349 271.26C274.991 271.428 274.71 271.623 274.505 271.845L274.121 272.18C272.535 273.684 270.54 276.443 268.135 280.454C265.781 284.411 264.604 286.946 264.604 288.06C264.604 288.283 264.656 288.395 264.758 288.395C265.065 288.395 265.73 288.116 266.753 287.559C267.828 287.002 269.337 285.692 271.281 283.631C273.277 281.569 274.94 279.006 276.27 275.941ZM272.816 295.081C275.528 292.351 279.417 287.838 284.482 281.541C284.636 281.374 284.763 281.29 284.866 281.29C284.968 281.29 285.019 281.402 285.019 281.625C285.019 282.683 284.636 283.714 283.868 284.717C280.082 289.286 276.731 293.103 273.814 296.168C271.665 298.508 269.107 300.765 266.139 302.938C263.172 305.055 260.716 306.114 258.772 306.114C256.418 306.114 255.241 304.331 255.241 300.765C255.241 294.858 257.237 288.673 261.227 282.21C265.27 275.746 269.926 271.372 275.196 269.087C277.396 268.084 279.391 267.583 281.182 267.583C283.177 267.583 284.175 268.446 284.175 270.174C284.175 273.406 282.077 277.111 277.882 281.29C273.686 285.469 268.979 288.646 263.76 290.819C263.555 290.874 263.376 291.069 263.223 291.404C262.455 293.688 262.072 295.722 262.072 297.505C262.072 299.511 262.762 300.514 264.144 300.514C266.344 300.514 269.235 298.703 272.816 295.081Z" stroke="white" stroke-width="6" stroke-dasharray="800 800"/>
<path d="M299.987 291.448C302.138 289.126 304.981 285.78 308.514 281.412C308.668 281.246 308.796 281.164 308.899 281.164C309.001 281.164 309.052 281.274 309.052 281.495C309.052 282.546 308.668 283.569 307.9 284.564C304.11 289.098 300.756 292.886 297.836 295.927C291.691 302.341 287.619 305.548 285.622 305.548C284.905 305.548 284.547 305.05 284.547 304.055C284.547 302.893 284.956 301.152 285.776 298.829C286.595 296.507 287.415 294.461 288.234 292.692L289.463 290.121C290.641 287.854 292.587 283.983 295.301 278.509C298.016 273.035 300.628 267.866 303.137 263C305.698 258.134 308.105 253.738 310.358 249.813H304.289C303.777 249.813 303.521 249.674 303.521 249.398C303.521 249.121 303.726 248.845 304.136 248.569C304.545 248.292 304.981 248.154 305.442 248.154C306.568 248.154 308.54 248.126 311.357 248.071C313.866 243.813 316.017 240.441 317.81 237.952C319.397 235.796 320.498 234.718 321.113 234.718C321.471 234.718 321.651 234.967 321.651 235.464C321.651 236.625 320.678 239.114 318.732 242.929L316.12 248.071H324.032C324.493 248.071 324.723 248.209 324.723 248.486C324.723 249.37 323.981 249.813 322.496 249.813H315.275C303.444 274.031 297.222 286.72 296.607 287.882C294.456 292.139 293.381 294.904 293.381 296.175C293.381 296.562 293.509 296.756 293.765 296.756C294.482 296.756 296.556 294.987 299.987 291.448Z" stroke="white" stroke-width="6" stroke-dasharray="800 800"/>
<path d="M340.945 291.427C343.096 289.103 345.938 285.756 349.473 281.386C349.626 281.22 349.754 281.137 349.857 281.137C349.959 281.137 350.01 281.248 350.01 281.469C350.01 282.52 349.626 283.543 348.858 284.539C345.068 289.075 341.713 292.865 338.793 295.908C332.647 302.048 328.601 305.118 326.654 305.118C325.886 305.118 325.502 304.593 325.502 303.542C325.502 301.55 326.552 298.535 328.652 294.497C330.752 290.403 332.826 286.614 334.875 283.129C336.975 279.588 338.025 277.514 338.025 276.905C338.025 276.573 337.871 276.407 337.564 276.407C336.335 276.407 334.004 278.454 330.573 282.548C327.141 286.641 324.247 290.32 321.891 293.584C319.279 297.125 316.999 299.946 315.053 302.048C313.158 304.15 311.903 305.34 311.288 305.616L310.29 306.114C309.829 306.114 309.598 305.838 309.598 305.284C309.598 304.399 310.059 302.823 310.981 300.554C311.903 298.286 312.825 296.239 313.747 294.414L315.13 291.676L327.115 268.441C336.54 250.462 343.967 237.683 349.396 230.104C350.932 227.891 352.008 226.785 352.623 226.785C352.93 226.785 353.084 227.006 353.084 227.449C353.084 228.61 352.264 230.989 350.625 234.585C342.584 250.241 337.001 261.083 333.876 267.113C331.981 270.764 330.265 274.028 328.729 276.905C327.192 279.726 326.091 281.718 325.425 282.88C324.81 284.041 324.273 285.065 323.812 285.95C323.351 286.78 322.992 287.499 322.736 288.107C322.685 288.273 322.659 288.439 322.659 288.605C322.659 288.882 322.71 289.02 322.813 289.02C322.915 289.02 323.12 288.854 323.427 288.522C334.901 274.748 342.43 267.86 346.015 267.86C346.732 267.86 347.091 268.247 347.091 269.022C347.091 269.243 346.988 269.741 346.784 270.516C346.579 271.235 345.99 272.728 345.017 274.996C344.043 277.265 342.763 279.782 341.175 282.548C340.202 284.097 338.973 286.309 337.487 289.186C336.002 292.063 335.259 293.944 335.259 294.829C335.259 295.327 335.49 295.576 335.951 295.576C336.104 295.576 336.309 295.52 336.565 295.41C336.873 295.244 337.206 294.995 337.564 294.663C337.923 294.331 338.23 294.027 338.486 293.75C338.793 293.473 339.203 293.086 339.715 292.588C340.279 292.035 340.688 291.648 340.945 291.427Z" stroke="white" stroke-width="6" stroke-dasharray="800 800"/>
<path d="M374.183 299.178C369.94 303.424 367.027 305.548 365.442 305.548C364.726 305.548 364.368 305.101 364.368 304.207C364.368 303.089 364.803 301.385 365.672 299.094C366.592 296.804 367.512 294.792 368.432 293.06L369.812 290.462C370.017 290.071 370.119 289.82 370.119 289.708C370.119 289.596 370.068 289.54 369.966 289.54C369.761 289.54 369.378 289.848 368.816 290.462C367.282 292.306 365.519 294.289 363.525 296.413C361.583 298.48 359.998 300.1 358.771 301.273L357.008 302.95C355.014 304.626 353.481 305.464 352.407 305.464C351.283 305.464 350.72 304.514 350.72 302.614C350.72 301.664 350.976 300.212 351.487 298.256C351.947 296.301 352.305 294.988 352.56 294.317C353.736 291.189 355.193 288.144 356.931 285.182C358.72 282.221 360.816 279.4 363.218 276.718C365.621 273.98 368.407 271.773 371.576 270.097C374.796 268.421 378.119 267.583 381.544 267.583C384.406 267.583 385.838 268.058 385.838 269.008C385.838 269.566 385.199 269.846 383.921 269.846C379.218 269.846 374.796 272.053 370.656 276.466C366.566 280.824 363.244 285.853 360.688 291.552C359.972 293.116 359.615 294.429 359.615 295.491C359.615 296.105 359.794 296.413 360.151 296.413C360.765 296.413 361.557 295.938 362.528 294.988C363.142 294.373 363.96 293.563 364.982 292.557C366.055 291.552 367.768 289.624 370.119 286.775C372.47 283.925 374.336 281.271 375.716 278.813C375.921 278.366 376.228 277.835 376.637 277.221C377.097 276.606 377.94 275.796 379.167 274.79C380.394 273.729 381.62 273.198 382.847 273.198C383.512 273.198 383.844 273.393 383.844 273.785C383.844 273.896 383.767 274.092 383.614 274.371C383.409 274.818 382.822 275.936 381.85 277.723C380.93 279.511 380.061 281.215 379.243 282.836C378.426 284.4 377.557 286.132 376.637 288.032C375.716 289.876 374.975 291.468 374.413 292.809C373.902 294.15 373.646 295.044 373.646 295.491C373.646 295.826 373.774 295.994 374.03 295.994C374.796 295.994 376.662 294.373 379.627 291.133C381.876 288.563 384.508 285.406 387.524 281.662C387.678 281.495 387.806 281.411 387.908 281.411C388.01 281.411 388.061 281.523 388.061 281.746C388.061 282.808 387.678 283.841 386.911 284.847C381.902 290.937 377.659 295.714 374.183 299.178Z" stroke="white" stroke-width="6" stroke-dasharray="800 800"/>
<path d="M431.933 289.651C434.084 287.324 436.927 283.972 440.462 279.595C440.616 279.429 440.744 279.346 440.846 279.346C440.949 279.346 441 279.457 441 279.679C441 280.731 440.616 281.756 439.847 282.754C436.057 287.297 432.701 291.092 429.781 294.139C423.736 300.234 419.766 303.281 417.871 303.281C417.051 303.281 416.641 302.755 416.641 301.702C416.641 300.649 417.154 298.904 418.178 296.466C419.254 294.028 420.304 291.812 421.329 289.818C422.404 287.823 423.736 285.385 425.324 282.504C426.964 279.623 427.835 278.072 427.937 277.85C428.859 276.244 429.32 275.219 429.32 274.775C429.32 274.498 429.192 274.36 428.936 274.36L427.86 274.775C425.504 276.604 422.686 279.457 419.408 283.335C416.129 287.158 413.44 290.51 411.339 293.391L408.189 297.796C405.832 301.453 403.527 303.281 401.273 303.281C400.607 303.281 400.274 303.059 400.274 302.616C400.274 302.117 400.761 300.815 401.734 298.71C402.708 296.549 403.681 294.527 404.654 292.643L406.114 289.818C406.473 289.042 407.344 287.38 408.727 284.831C410.161 282.227 411.339 280.011 412.261 278.183C413.235 276.299 413.721 275.135 413.721 274.692C413.721 274.415 413.619 274.277 413.414 274.277L412.338 274.775C409.931 276.604 407.088 279.457 403.809 283.335C400.53 287.158 397.867 290.51 395.818 293.391L392.667 297.796C390.259 301.397 387.954 303.198 385.751 303.198C385.085 303.198 384.752 303.004 384.752 302.616C384.752 302.117 385.239 300.815 386.212 298.71C387.186 296.549 388.159 294.527 389.132 292.643L390.592 289.818L398.046 275.523C399.275 273.03 400.761 270.814 402.503 268.875C404.244 266.88 406.063 265.883 407.958 265.883C408.368 265.883 408.573 266.077 408.573 266.465C408.573 266.797 408.266 267.517 407.651 268.625C407.088 269.678 406.242 271.174 405.115 273.113C404.039 274.997 403.117 276.742 402.349 278.349C401.888 279.291 401.324 280.371 400.658 281.59C400.044 282.754 399.531 283.751 399.122 284.582C398.712 285.358 398.43 285.912 398.276 286.244C398.123 286.576 398.046 286.826 398.046 286.992C398.046 287.103 398.097 287.158 398.2 287.158C398.353 287.158 398.609 286.964 398.968 286.576C399.941 285.358 401.196 283.834 402.733 282.006C404.321 280.177 406.985 277.435 410.725 273.778C414.464 270.066 417.538 267.573 419.946 266.298C420.458 266.021 420.97 265.883 421.482 265.883C422.2 265.883 422.558 266.271 422.558 267.046C422.558 268.487 421.047 272.227 418.025 278.266C417.768 278.764 417.231 279.734 416.411 281.175C415.642 282.615 414.977 283.862 414.413 284.914C413.901 285.967 413.645 286.632 413.645 286.909C413.645 287.075 413.696 287.158 413.798 287.158C413.952 287.158 414.208 286.964 414.567 286.576C415.54 285.358 416.795 283.834 418.332 282.006C419.92 280.177 422.558 277.435 426.247 273.778C429.986 270.066 433.06 267.573 435.467 266.298C436.082 266.021 436.62 265.883 437.081 265.883C437.85 265.883 438.234 266.271 438.234 267.046C438.234 267.268 438.131 267.767 437.926 268.542C437.721 269.263 437.132 270.786 436.159 273.113C435.186 275.385 433.905 277.906 432.317 280.676C428.424 287.158 426.477 291.23 426.477 292.893C426.477 293.391 426.631 293.641 426.938 293.641C427.809 293.641 429.474 292.311 431.933 289.651Z" stroke="white" stroke-width="6" stroke-dasharray="800 800"/>
</mask>
<g mask="url(#mask0_1_2)">
<path d="M12.2211 293.256C13.007 291.059 14.1123 288.505 15.5368 285.594C17.0105 282.684 18.2877 280.322 19.3684 278.51L20.9895 275.873C21.6772 274.775 22.3649 274.226 23.0526 274.226C23.593 274.226 23.8632 274.528 23.8632 275.132L23.6421 275.956C21.8737 280.954 20.9895 285.265 20.9895 288.89C20.9895 291.801 21.5544 294.19 22.6842 296.057C23.8632 297.869 25.6807 298.776 28.1368 298.776C31.8211 298.776 34.793 296.991 37.0526 293.421C39.3123 289.796 40.4421 285.896 40.4421 281.722C40.4421 278.153 39.3368 273.072 37.1263 266.482C34.9649 259.836 33.8842 255.332 33.8842 252.971C33.8842 247.863 35.8246 243.771 39.7053 240.696C43.6351 237.565 47.9333 236 52.6 236C53.4351 236 54.2456 236.055 55.0316 236.165C55.8667 236.275 56.7754 236.467 57.7579 236.741C58.7404 236.961 59.5263 237.346 60.1158 237.895C60.7053 238.444 61 239.131 61 239.954C61 241.053 60.3123 242.92 58.9368 245.556C57.5614 248.193 56.407 250.197 55.4737 251.57C55.1298 251.845 54.8351 251.982 54.5895 251.982C54.2456 251.982 54.0737 251.653 54.0737 250.994C54.0737 249.456 54.2211 247.369 54.5158 244.733C54.5158 240.449 53.0421 238.307 50.0947 238.307C47.5895 238.307 45.4526 239.268 43.6842 241.19C41.9649 243.112 41.1053 245.447 41.1053 248.193C41.1053 251.817 42.2351 256.87 44.4947 263.351C46.8035 269.832 47.9579 274.83 47.9579 278.345C47.9579 284.935 45.6246 290.373 40.9579 294.657C36.3404 298.886 31.1333 301 25.3368 301C24.3544 301 23.1754 300.89 21.8 300.67C20.4246 300.451 18.9754 300.094 17.4526 299.599C15.9298 299.16 14.6526 298.501 13.6211 297.622C12.5404 296.689 12 295.645 12 294.492C12 294.052 12.0737 293.64 12.2211 293.256Z" stroke="white" stroke-width="6" stroke-dasharray="800 800"/>
<path d="M73.2485 296.625C69.0445 300.875 66.1574 303 64.5873 303C63.8782 303 63.5236 302.553 63.5236 301.658C63.5236 300.539 63.9541 298.834 64.8152 296.541C65.7269 294.248 66.6386 292.235 67.5503 290.501L68.9179 287.901C69.1205 287.509 69.2218 287.258 69.2218 287.146C69.2218 287.034 69.1711 286.978 69.0698 286.978C68.8672 286.978 68.4873 287.286 67.9302 287.901C66.4107 289.746 64.6632 291.731 62.6879 293.857C60.7632 295.926 59.193 297.547 57.9774 298.722L56.23 300.4C54.2546 302.077 52.7351 302.916 51.6715 302.916C50.5572 302.916 50 301.965 50 300.064C50 299.113 50.2533 297.659 50.7598 295.702C51.2156 293.745 51.5702 292.43 51.8234 291.759C52.9884 288.628 54.4319 285.58 56.154 282.616C57.9268 279.652 60.0034 276.828 62.384 274.143C64.7645 271.403 67.525 269.194 70.6653 267.517C73.8563 265.839 77.1485 265 80.5421 265C83.3785 265 84.7967 265.475 84.7967 266.426C84.7967 266.985 84.1636 267.265 82.8973 267.265C78.2375 267.265 73.8563 269.474 69.7536 273.892C65.7016 278.254 62.4093 283.287 59.8768 288.991C59.1677 290.557 58.8131 291.871 58.8131 292.934C58.8131 293.549 58.9904 293.857 59.345 293.857C59.9528 293.857 60.7379 293.381 61.7002 292.43C62.308 291.815 63.1184 291.004 64.1314 289.998C65.1951 288.991 66.8919 287.062 69.2218 284.21C71.5517 281.358 73.4004 278.701 74.768 276.241C74.9706 275.793 75.2745 275.262 75.6797 274.647C76.1355 274.032 76.9712 273.221 78.1869 272.214C79.4025 271.152 80.6181 270.62 81.8337 270.62C82.4921 270.62 82.8214 270.816 82.8214 271.208C82.8214 271.319 82.7454 271.515 82.5934 271.795C82.3908 272.242 81.8083 273.361 80.846 275.15C79.9343 276.94 79.0732 278.645 78.2628 280.267C77.4524 281.833 76.5914 283.567 75.6797 285.468C74.768 287.313 74.0335 288.907 73.4764 290.249C72.9699 291.592 72.7166 292.486 72.7166 292.934C72.7166 293.269 72.8433 293.437 73.0965 293.437C73.8563 293.437 75.705 291.815 78.6427 288.572C80.8713 285.999 83.4798 282.84 86.4682 279.093C86.6201 278.925 86.7467 278.841 86.848 278.841C86.9493 278.841 87 278.953 87 279.177C87 280.239 86.6201 281.274 85.8604 282.28C80.8966 288.376 76.6927 293.157 73.2485 296.625Z" stroke="white" stroke-width="6" stroke-dasharray="800 800"/>
<path d="M104.725 292.145C103.825 294.911 102.4 297.254 100.45 299.173C98.5 301.036 96.675 302.306 94.975 302.984C93.325 303.661 91.825 304 90.475 304C86.825 304 85 302.391 85 299.173C85 295.899 86.6 292.935 89.8 290.282C91.3 289.04 92.925 288.222 94.675 287.827C94.925 287.827 95.05 287.94 95.05 288.165C95.05 288.278 95 288.391 94.9 288.504C93.65 289.577 92.45 291.242 91.3 293.5C90.2 295.758 89.65 297.734 89.65 299.427C89.65 301.121 90.275 301.968 91.525 301.968C92.525 301.968 93.5 301.516 94.45 300.613C95.45 299.653 96.2 298.694 96.7 297.734L97.45 296.379C98.45 294.573 99.275 291.694 99.925 287.742C100.625 283.79 101.075 280.29 101.275 277.242L101.5 272.669C101.5 272.218 101.425 271.992 101.275 271.992L100.975 272.161L93.55 281.984C93 282.718 92.625 283.085 92.425 283.085C92.175 283.085 92.05 282.887 92.05 282.492C92.05 281.758 92.225 281.194 92.575 280.798L93.25 279.867C98.95 272.641 102.2 268.266 103 266.742C103.75 265.444 104.85 264.315 106.3 263.355C107.7 262.452 109.35 262 111.25 262C111.75 262 112 262.226 112 262.677C112 262.96 111.8 263.214 111.4 263.44C111.25 263.496 111.05 263.637 110.8 263.863C110.6 264.032 110.2 264.484 109.6 265.218C109.05 265.952 108.55 266.798 108.1 267.758C107.65 268.718 107.25 270.073 106.9 271.823C106.55 273.516 106.375 275.407 106.375 277.496C106.375 283.988 105.825 288.871 104.725 292.145Z" stroke="white" stroke-width="6" stroke-dasharray="800 800"/>
<path d="M121.57 293.627C115.699 299.876 111.935 303 110.28 303C109.427 303 109 302.347 109 301.04C109 299.734 109.452 297.831 110.355 295.331C111.258 292.832 112.161 290.645 113.065 288.77L114.419 286.043C118.233 278.488 121.118 273.063 123.075 269.768C123.928 268.348 125.007 267.155 126.312 266.19C127.667 265.167 128.921 264.656 130.075 264.656C130.477 264.656 130.677 264.855 130.677 265.252C130.677 265.536 130.502 266.076 130.151 266.871C129.548 268.121 128.068 271.103 125.71 275.818C123.351 280.533 121.946 283.374 121.495 284.339C119.437 288.429 118.409 291.156 118.409 292.519C118.409 293.031 118.559 293.286 118.86 293.286C119.362 293.286 120.968 291.866 123.677 289.026C125.785 286.64 128.57 283.203 132.032 278.715C132.183 278.545 132.308 278.46 132.409 278.46C132.509 278.46 132.559 278.573 132.559 278.801C132.559 279.88 132.183 280.931 131.43 281.953C127.717 286.611 124.43 290.503 121.57 293.627ZM131.581 259.799C130.326 259.799 129.699 258.947 129.699 257.243C129.699 255.652 130.226 254.062 131.28 252.471C132.333 250.824 133.487 250 134.742 250C136.247 250 137 250.966 137 252.897C137 254.488 136.423 256.05 135.269 257.584C134.115 259.061 132.885 259.799 131.581 259.799Z" stroke="white" stroke-width="6" stroke-dasharray="800 800"/>
<path d="M184.691 272.799C184.342 273.511 182.251 278.136 178.416 286.675C175.877 292.368 173.312 296.665 170.723 299.566C168.183 302.522 166.241 304 164.896 304C164.299 304 164 303.699 164 303.097L164.224 302.112C164.772 300.469 166.465 296.61 169.303 290.534C172.192 284.458 174.881 279.067 177.37 274.359C179.711 269.871 182.002 265.546 184.242 261.386C186.483 257.171 188.151 254.078 189.247 252.108L190.89 249.152C190.99 248.988 191.114 248.769 191.264 248.495C191.413 248.221 191.737 247.729 192.235 247.017C192.783 246.306 193.33 245.703 193.878 245.211C194.426 244.663 195.073 244.171 195.82 243.733C196.567 243.295 197.289 243.076 197.986 243.076C198.634 243.076 198.957 243.268 198.957 243.651C198.957 244.143 198.659 244.855 198.061 245.786C194.326 252.792 190.342 260.757 186.11 269.679C186.06 269.788 186.035 269.898 186.035 270.007C186.035 270.172 186.135 270.254 186.334 270.254C189.471 270.254 192.359 269.597 194.998 268.283C197.688 266.969 199.854 265.272 201.497 263.192C203.19 261.058 204.485 258.786 205.381 256.377C206.327 253.969 206.8 251.588 206.8 249.234C206.8 245.895 205.655 243.377 203.364 241.68C201.074 239.983 198.385 239.135 195.297 239.135C192.957 239.135 190.666 239.518 188.425 240.284C186.234 241.051 184.292 242.364 182.599 244.225C180.956 246.087 180.134 248.304 180.134 250.876C180.134 252.409 180.508 253.887 181.255 255.31C181.504 255.857 181.628 256.241 181.628 256.46C181.628 256.788 181.429 256.952 181.03 256.952C180.931 256.952 180.732 256.897 180.433 256.788C180.284 256.733 180.084 256.624 179.835 256.46C179.586 256.295 179.138 255.967 178.491 255.474C177.843 254.982 177.271 254.462 176.773 253.914C176.275 253.367 175.827 252.655 175.428 251.779C175.03 250.849 174.831 249.918 174.831 248.988C174.831 245.594 176.723 242.748 180.508 240.449C184.342 238.15 188.674 237 193.505 237C195.845 237 198.061 237.219 200.152 237.657C202.294 238.095 204.36 238.806 206.352 239.792C208.394 240.722 210.012 242.091 211.207 243.897C212.402 245.703 213 247.838 213 250.301C213 253.969 212.129 257.281 210.386 260.237C208.693 263.138 206.452 265.464 203.663 267.216C200.924 268.913 197.986 270.226 194.849 271.157C191.712 272.033 188.55 272.471 185.363 272.471C185.313 272.416 185.238 272.388 185.139 272.388C184.94 272.388 184.79 272.525 184.691 272.799Z" stroke="white" stroke-width="6" stroke-dasharray="800 800"/>
<path d="M217.233 285.547C216.834 285.547 216.634 285.379 216.634 285.042C216.634 284.874 216.709 284.649 216.859 284.368C219.807 279.204 221.281 275.667 221.281 273.758C221.281 273.253 221.106 273 220.756 273C219.257 273 215.734 276.818 210.188 284.453C208.54 286.811 206.991 289.253 205.542 291.779C204.143 294.305 203.168 296.242 202.619 297.589L201.719 299.526C201.12 300.874 200.196 302.109 198.946 303.232C197.697 304.411 196.398 305 195.049 305C194.35 305 194 304.804 194 304.411C194 304.074 194.225 303.372 194.675 302.305C195.074 301.239 195.574 300.06 196.173 298.768C196.773 297.477 197.373 296.214 197.972 294.979C198.572 293.744 199.071 292.705 199.471 291.863L200.146 290.6L208.015 275.189C211.063 268.733 214.261 265.505 217.608 265.505C218.058 265.505 218.283 265.702 218.283 266.095C218.283 266.6 217.183 268.705 214.985 272.411C212.837 276.06 211.587 278.389 211.238 279.4C211.138 279.737 211.088 279.933 211.088 279.989C211.088 280.102 211.138 280.158 211.238 280.158C211.338 280.158 211.512 280.018 211.762 279.737C215.51 274.965 219.482 270.726 223.679 267.021C223.929 266.74 224.478 266.347 225.328 265.842C226.177 265.281 226.926 265 227.576 265C228.525 265 229 265.926 229 267.779C229 269.8 228.4 272.214 227.201 275.021C226.002 277.828 224.378 280.298 222.33 282.432L222.03 282.768C221.83 282.937 221.605 283.133 221.355 283.358C221.156 283.526 220.881 283.751 220.531 284.032C220.181 284.312 219.832 284.565 219.482 284.789C219.132 284.958 218.757 285.126 218.358 285.295C217.958 285.463 217.583 285.547 217.233 285.547Z" stroke="white" stroke-width="6" stroke-dasharray="800 800"/>
<path d="M248.479 274.46C249.077 273.05 249.376 271.809 249.376 270.738C249.376 269.835 249.127 269.384 248.629 269.384C248.33 269.384 247.981 269.497 247.582 269.722C247.234 269.892 246.96 270.089 246.76 270.315L246.387 270.653C244.842 272.176 242.899 274.967 240.557 279.028C238.265 283.033 237.119 285.599 237.119 286.727C237.119 286.952 237.168 287.065 237.268 287.065C237.567 287.065 238.215 286.783 239.211 286.219C240.258 285.655 241.728 284.33 243.621 282.243C245.564 280.156 247.184 277.562 248.479 274.46ZM245.116 293.833C247.757 291.069 251.544 286.501 256.477 280.128C256.626 279.959 256.751 279.874 256.851 279.874C256.95 279.874 257 279.987 257 280.213C257 281.284 256.626 282.328 255.879 283.343C252.192 287.967 248.928 291.831 246.088 294.933C243.995 297.302 241.503 299.586 238.613 301.785C235.723 303.928 233.332 305 231.438 305C229.146 305 228 303.195 228 299.586C228 293.607 229.943 287.347 233.83 280.805C237.766 274.262 242.301 269.835 247.433 267.523C249.576 266.508 251.519 266 253.263 266C255.206 266 256.178 266.874 256.178 268.623C256.178 271.894 254.135 275.644 250.049 279.874C245.963 284.104 241.379 287.319 236.296 289.518C236.097 289.575 235.923 289.772 235.773 290.111C235.026 292.423 234.652 294.482 234.652 296.286C234.652 298.317 235.325 299.332 236.67 299.332C238.813 299.332 241.628 297.499 245.116 293.833Z" stroke="white" stroke-width="6" stroke-dasharray="800 800"/>
<path d="M280.479 274.46C281.077 273.05 281.376 271.809 281.376 270.738C281.376 269.835 281.127 269.384 280.629 269.384C280.33 269.384 279.981 269.497 279.582 269.722C279.234 269.892 278.96 270.089 278.76 270.315L278.387 270.653C276.842 272.176 274.899 274.967 272.557 279.028C270.265 283.033 269.119 285.599 269.119 286.727C269.119 286.952 269.168 287.065 269.268 287.065C269.567 287.065 270.215 286.783 271.211 286.219C272.258 285.655 273.728 284.33 275.621 282.243C277.564 280.156 279.184 277.562 280.479 274.46ZM277.116 293.833C279.757 291.069 283.544 286.501 288.477 280.128C288.626 279.959 288.751 279.874 288.851 279.874C288.95 279.874 289 279.987 289 280.213C289 281.284 288.626 282.328 287.879 283.343C284.192 287.967 280.928 291.831 278.088 294.933C275.995 297.302 273.503 299.586 270.613 301.785C267.723 303.928 265.332 305 263.438 305C261.146 305 260 303.195 260 299.586C260 293.607 261.943 287.347 265.83 280.805C269.766 274.262 274.301 269.835 279.433 267.523C281.576 266.508 283.519 266 285.263 266C287.206 266 288.178 266.874 288.178 268.623C288.178 271.894 286.135 275.644 282.049 279.874C277.963 284.104 273.379 287.319 268.296 289.518C268.097 289.575 267.923 289.772 267.773 290.111C267.026 292.423 266.652 294.482 266.652 296.286C266.652 298.317 267.325 299.332 268.67 299.332C270.813 299.332 273.628 297.499 277.116 293.833Z" stroke="white" stroke-width="6" stroke-dasharray="800 800"/>
<path d="M303.989 290.667C306.076 288.307 308.836 284.906 312.266 280.466C312.415 280.297 312.539 280.213 312.639 280.213C312.738 280.213 312.788 280.326 312.788 280.55C312.788 281.618 312.415 282.658 311.669 283.67C307.99 288.279 304.734 292.129 301.901 295.22C295.935 301.74 291.983 305 290.044 305C289.348 305 289 304.494 289 303.482C289 302.302 289.398 300.532 290.193 298.171C290.989 295.81 291.784 293.731 292.579 291.932L293.772 289.319C294.916 287.014 296.805 283.08 299.44 277.515C302.075 271.951 304.61 266.696 307.046 261.749C309.532 256.803 311.868 252.335 314.055 248.344H308.164C307.667 248.344 307.419 248.204 307.419 247.923C307.419 247.642 307.618 247.361 308.015 247.08C308.413 246.799 308.836 246.658 309.283 246.658C310.377 246.658 312.291 246.63 315.025 246.574C317.461 242.246 319.549 238.817 321.289 236.288C322.83 234.096 323.899 233 324.495 233C324.843 233 325.017 233.253 325.017 233.759C325.017 234.939 324.073 237.468 322.184 241.347L319.648 246.574H327.329C327.776 246.574 328 246.714 328 246.995C328 247.895 327.279 248.344 325.837 248.344H318.828C307.344 272.963 301.304 285.862 300.707 287.042C298.62 291.37 297.576 294.18 297.576 295.473C297.576 295.867 297.7 296.063 297.948 296.063C298.644 296.063 300.658 294.265 303.989 290.667Z" stroke="white" stroke-width="6" stroke-dasharray="800 800"/>
<path d="M343.717 290.373C345.894 288.06 348.77 284.727 352.346 280.374C352.502 280.209 352.631 280.127 352.735 280.127C352.839 280.127 352.89 280.237 352.89 280.457C352.89 281.504 352.502 282.523 351.724 283.515C347.889 288.032 344.495 291.806 341.541 294.836C335.322 300.951 331.227 304.008 329.258 304.008C328.481 304.008 328.092 303.485 328.092 302.438C328.092 300.455 329.154 297.453 331.279 293.431C333.404 289.354 335.503 285.581 337.576 282.11C339.701 278.584 340.763 276.518 340.763 275.912C340.763 275.582 340.608 275.416 340.297 275.416C339.053 275.416 336.695 277.455 333.223 281.531C329.75 285.608 326.822 289.272 324.438 292.522C321.795 296.048 319.489 298.857 317.519 300.951C315.602 303.044 314.332 304.229 313.71 304.504L312.7 305C312.233 305 312 304.725 312 304.174C312 303.292 312.466 301.722 313.399 299.463C314.332 297.205 315.265 295.166 316.198 293.348L317.597 290.621L329.724 267.483C339.26 249.579 346.775 236.853 352.269 229.305C353.823 227.102 354.912 226 355.534 226C355.845 226 356 226.22 356 226.661C356 227.818 355.171 230.187 353.512 233.768C345.376 249.358 339.727 260.156 336.565 266.161C334.648 269.797 332.912 273.047 331.357 275.912C329.802 278.722 328.688 280.705 328.014 281.862C327.392 283.019 326.848 284.038 326.382 284.919C325.915 285.746 325.552 286.462 325.293 287.068C325.241 287.233 325.216 287.399 325.216 287.564C325.216 287.839 325.267 287.977 325.371 287.977C325.475 287.977 325.682 287.812 325.993 287.481C337.602 273.764 345.22 266.905 348.848 266.905C349.574 266.905 349.936 267.29 349.936 268.062C349.936 268.282 349.833 268.778 349.625 269.549C349.418 270.265 348.822 271.753 347.837 274.012C346.853 276.27 345.557 278.777 343.951 281.531C342.966 283.074 341.722 285.278 340.219 288.142C338.716 291.007 337.965 292.88 337.965 293.762C337.965 294.257 338.198 294.505 338.664 294.505C338.82 294.505 339.027 294.45 339.286 294.34C339.597 294.175 339.934 293.927 340.297 293.596C340.66 293.266 340.971 292.963 341.23 292.687C341.541 292.412 341.955 292.026 342.474 291.53C343.044 290.979 343.458 290.594 343.717 290.373Z" stroke="white" stroke-width="6" stroke-dasharray="800 800"/>
<path d="M375.248 298.457C371.044 302.819 368.157 305 366.587 305C365.878 305 365.524 304.541 365.524 303.623C365.524 302.475 365.954 300.724 366.815 298.371C367.727 296.018 368.639 293.951 369.55 292.172L370.918 289.503C371.12 289.102 371.222 288.843 371.222 288.728C371.222 288.614 371.171 288.556 371.07 288.556C370.867 288.556 370.487 288.872 369.93 289.503C368.411 291.397 366.663 293.435 364.688 295.616C362.763 297.74 361.193 299.404 359.977 300.609L358.23 302.331C356.255 304.053 354.735 304.914 353.671 304.914C352.557 304.914 352 303.938 352 301.987C352 301.011 352.253 299.519 352.76 297.51C353.216 295.501 353.57 294.152 353.823 293.464C354.988 290.249 356.432 287.121 358.154 284.079C359.927 281.038 362.003 278.139 364.384 275.384C366.765 272.572 369.525 270.305 372.665 268.583C375.856 266.861 379.149 266 382.542 266C385.379 266 386.797 266.488 386.797 267.464C386.797 268.038 386.164 268.325 384.897 268.325C380.238 268.325 375.856 270.592 371.754 275.126C367.702 279.603 364.409 284.768 361.877 290.623C361.168 292.23 360.813 293.578 360.813 294.669C360.813 295.3 360.99 295.616 361.345 295.616C361.953 295.616 362.738 295.128 363.7 294.152C364.308 293.521 365.118 292.689 366.131 291.656C367.195 290.623 368.892 288.642 371.222 285.715C373.552 282.788 375.4 280.062 376.768 277.536C376.971 277.077 377.274 276.532 377.68 275.901C378.136 275.269 378.971 274.437 380.187 273.404C381.402 272.313 382.618 271.768 383.834 271.768C384.492 271.768 384.821 271.969 384.821 272.371C384.821 272.486 384.745 272.687 384.593 272.974C384.391 273.433 383.808 274.581 382.846 276.417C381.934 278.254 381.073 280.004 380.263 281.669C379.452 283.276 378.591 285.055 377.68 287.007C376.768 288.901 376.034 290.536 375.476 291.914C374.97 293.291 374.717 294.21 374.717 294.669C374.717 295.013 374.843 295.185 375.097 295.185C375.856 295.185 377.705 293.521 380.643 290.192C382.871 287.552 385.48 284.309 388.468 280.464C388.62 280.291 388.747 280.205 388.848 280.205C388.949 280.205 389 280.32 389 280.55C389 281.64 388.62 282.702 387.86 283.735C382.897 289.991 378.693 294.898 375.248 298.457Z" stroke="white" stroke-width="6" stroke-dasharray="800 800"/>
<path d="M432.134 289.151C434.238 286.787 437.018 283.381 440.474 278.933C440.624 278.764 440.75 278.68 440.85 278.68C440.95 278.68 441 278.793 441 279.018C441 280.087 440.624 281.129 439.873 282.142C436.166 286.759 432.885 290.615 430.03 293.711C424.119 299.904 420.237 303 418.384 303C417.582 303 417.182 302.465 417.182 301.396C417.182 300.326 417.683 298.553 418.684 296.076C419.736 293.599 420.763 291.347 421.765 289.32C422.817 287.293 424.119 284.816 425.672 281.889C427.275 278.961 428.127 277.385 428.227 277.16C429.128 275.527 429.579 274.486 429.579 274.036C429.579 273.754 429.454 273.613 429.204 273.613L428.152 274.036C425.847 275.893 423.092 278.793 419.887 282.733C416.681 286.618 414.051 290.024 411.997 292.951L408.917 297.427C406.612 301.142 404.358 303 402.154 303C401.503 303 401.178 302.775 401.178 302.324C401.178 301.818 401.653 300.495 402.605 298.356C403.557 296.16 404.509 294.105 405.46 292.191L406.888 289.32C407.239 288.532 408.09 286.843 409.443 284.253C410.845 281.607 411.997 279.356 412.899 277.498C413.851 275.584 414.327 274.401 414.327 273.951C414.327 273.67 414.226 273.529 414.026 273.529L412.974 274.036C410.62 275.893 407.84 278.793 404.634 282.733C401.428 286.618 398.823 290.024 396.82 292.951L393.739 297.427C391.385 301.086 389.131 302.916 386.977 302.916C386.326 302.916 386 302.719 386 302.324C386 301.818 386.476 300.495 387.428 298.356C388.379 296.16 389.331 294.105 390.283 292.191L391.71 289.32L398.999 274.796C400.201 272.262 401.653 270.01 403.357 268.04C405.06 266.013 406.838 265 408.691 265C409.092 265 409.292 265.197 409.292 265.591C409.292 265.929 408.992 266.661 408.391 267.787C407.84 268.856 407.013 270.376 405.911 272.347C404.859 274.261 403.958 276.034 403.206 277.667C402.755 278.624 402.204 279.721 401.553 280.96C400.952 282.142 400.451 283.156 400.051 284C399.65 284.788 399.374 285.351 399.224 285.689C399.074 286.027 398.999 286.28 398.999 286.449C398.999 286.561 399.049 286.618 399.149 286.618C399.299 286.618 399.55 286.421 399.9 286.027C400.852 284.788 402.079 283.24 403.582 281.382C405.135 279.524 407.74 276.738 411.396 273.022C415.053 269.25 418.058 266.717 420.413 265.422C420.913 265.141 421.414 265 421.915 265C422.617 265 422.967 265.394 422.967 266.182C422.967 267.646 421.49 271.446 418.534 277.582C418.284 278.089 417.758 279.074 416.956 280.538C416.205 282.001 415.554 283.268 415.003 284.338C414.502 285.407 414.251 286.083 414.251 286.364C414.251 286.533 414.301 286.618 414.402 286.618C414.552 286.618 414.802 286.421 415.153 286.027C416.105 284.788 417.332 283.24 418.835 281.382C420.388 279.524 422.967 276.738 426.574 273.022C430.23 269.25 433.236 266.717 435.59 265.422C436.191 265.141 436.717 265 437.168 265C437.919 265 438.295 265.394 438.295 266.182C438.295 266.407 438.195 266.914 437.995 267.702C437.794 268.434 437.218 269.982 436.266 272.347C435.315 274.655 434.062 277.216 432.51 280.031C428.703 286.618 426.799 290.756 426.799 292.444C426.799 292.951 426.949 293.204 427.25 293.204C428.102 293.204 429.73 291.853 432.134 289.151Z" stroke="white" stroke-width="6" stroke-dasharray="800 800"/>
</g>
</g>
<defs>
<clipPath id="clip0_1_2">
<rect width="441" height="306" fill="white"/>
</clipPath>
</defs>
</svg>
